<?xml version="1.0" encoding="UTF-8" standalone="no"?>
<svg
   xmlns:dc="http://purl.org/dc/elements/1.1/"
   xmlns:cc="http://creativecommons.org/ns#"
   xmlns:rdf="http://www.w3.org/1999/02/22-rdf-syntax-ns#"
   xmlns:svg="http://www.w3.org/2000/svg"
   xmlns="http://www.w3.org/2000/svg"
   xmlns:sodipodi="http://sodipodi.sourceforge.net/DTD/sodipodi-0.dtd"
   xmlns:inkscape="http://www.inkscape.org/namespaces/inkscape"
   width="210mm"
   height="297mm"
   viewBox="0 0 210 297"
   version="1.1"
   id="svg8"
   inkscape:version="1.0.1 (3bc2e813f5, 2020-09-07)"
   sodipodi:docname="Logo.svg">
  <defs
     id="defs2">
    <inkscape:path-effect
       effect="bspline"
       id="path-effect1260"
       is_visible="true"
       lpeversion="1"
       weight="33.333333"
       steps="2"
       helper_size="0"
       apply_no_weight="true"
       apply_with_weight="true"
       only_selected="false" />
    <inkscape:path-effect
       effect="bspline"
       id="path-effect1241"
       is_visible="true"
       lpeversion="1"
       weight="33.333333"
       steps="2"
       helper_size="0"
       apply_no_weight="true"
       apply_with_weight="true"
       only_selected="false" />
    <inkscape:path-effect
       effect="bspline"
       id="path-effect973"
       is_visible="true"
       lpeversion="1"
       weight="33.333333"
       steps="2"
       helper_size="0"
       apply_no_weight="true"
       apply_with_weight="true"
       only_selected="false" />
    <inkscape:path-effect
       effect="bspline"
       id="path-effect969"
       is_visible="true"
       lpeversion="1"
       weight="33.333333"
       steps="2"
       helper_size="0"
       apply_no_weight="true"
       apply_with_weight="true"
       only_selected="false" />
    <inkscape:path-effect
       effect="bspline"
       id="path-effect930"
       is_visible="true"
       lpeversion="1"
       weight="33.333333"
       steps="2"
       helper_size="0"
       apply_no_weight="true"
       apply_with_weight="true"
       only_selected="false" />
    <inkscape:path-effect
       effect="bspline"
       id="path-effect926"
       is_visible="true"
       lpeversion="1"
       weight="33.333333"
       steps="2"
       helper_size="0"
       apply_no_weight="true"
       apply_with_weight="true"
       only_selected="false" />
    <inkscape:path-effect
       effect="bspline"
       id="path-effect919"
       is_visible="true"
       lpeversion="1"
       weight="33.333333"
       steps="2"
       helper_size="0"
       apply_no_weight="true"
       apply_with_weight="true"
       only_selected="false" />
    <inkscape:path-effect
       effect="bspline"
       id="path-effect915"
       is_visible="true"
       lpeversion="1"
       weight="33.333333"
       steps="2"
       helper_size="0"
       apply_no_weight="true"
       apply_with_weight="true"
       only_selected="false" />
    <inkscape:path-effect
       effect="bspline"
       id="path-effect911"
       is_visible="true"
       lpeversion="1"
       weight="33.333333"
       steps="2"
       helper_size="0"
       apply_no_weight="true"
       apply_with_weight="true"
       only_selected="false" />
    <inkscape:path-effect
       effect="bspline"
       id="path-effect907"
       is_visible="true"
       lpeversion="1"
       weight="33.333333"
       steps="2"
       helper_size="0"
       apply_no_weight="true"
       apply_with_weight="true"
       only_selected="false" />
    <inkscape:path-effect
       effect="bspline"
       id="path-effect903"
       is_visible="true"
       lpeversion="1"
       weight="33.333333"
       steps="2"
       helper_size="0"
       apply_no_weight="true"
       apply_with_weight="true"
       only_selected="false" />
    <inkscape:path-effect
       effect="bspline"
       id="path-effect899"
       is_visible="true"
       lpeversion="1"
       weight="33.333333"
       steps="2"
       helper_size="0"
       apply_no_weight="true"
       apply_with_weight="true"
       only_selected="false" />
    <inkscape:path-effect
       effect="bspline"
       id="path-effect859"
       is_visible="true"
       lpeversion="1"
       weight="33.333333"
       steps="2"
       helper_size="0"
       apply_no_weight="true"
       apply_with_weight="true"
       only_selected="false" />
    <inkscape:path-effect
       effect="bspline"
       id="path-effect32"
       is_visible="true"
       lpeversion="1"
       weight="33.333333"
       steps="2"
       helper_size="0"
       apply_no_weight="true"
       apply_with_weight="true"
       only_selected="false" />
    <inkscape:path-effect
       effect="bspline"
       id="path-effect28"
       is_visible="true"
       lpeversion="1"
       weight="33.333333"
       steps="2"
       helper_size="0"
       apply_no_weight="true"
       apply_with_weight="true"
       only_selected="false" />
  </defs>
  <sodipodi:namedview
     id="base"
     pagecolor="#ffffff"
     bordercolor="#666666"
     borderopacity="1.0"
     inkscape:pageopacity="0.0"
     inkscape:pageshadow="2"
     inkscape:zoom="1"
     inkscape:cx="256.40844"
     inkscape:cy="380.39643"
     inkscape:document-units="mm"
     inkscape:current-layer="layer1"
     inkscape:document-rotation="0"
     showgrid="false"
     inkscape:window-width="1920"
     inkscape:window-height="1177"
     inkscape:window-x="1912"
     inkscape:window-y="-8"
     inkscape:window-maximized="1" />
  <metadata
     id="metadata5">
    <rdf:RDF>
      <cc:Work
         rdf:about="">
        <dc:format>image/svg+xml</dc:format>
        <dc:type
           rdf:resource="http://purl.org/dc/dcmitype/StillImage" />
        <dc:title></dc:title>
      </cc:Work>
    </rdf:RDF>
  </metadata>
  <g
     inkscape:label="Layer 1"
     inkscape:groupmode="layer"
     id="layer1">
    <path
       id="path861"
       style="fill:#000000;stroke:#000000;stroke-width:0.999999px;stroke-linecap:butt;stroke-linejoin:miter;stroke-opacity:1"
       d="M 606.25 660.35742 L 604.28516 661.42773 L 453.39258 758.92773 L 464.82227 779.46484 L 467.14258 782.14258 L 469.64258 784.10742 L 471.60742 786.25 L 474.64258 787.5 L 477.14258 788.57227 L 480.35742 789.28516 L 484.10742 788.92773 L 488.57227 787.85742 L 616.96484 703.75 L 621.25 700.89258 L 622.14258 698.39258 L 622.5 695.71484 L 623.03516 693.03516 L 623.57227 691.60742 L 623.92773 686.07227 L 623.39258 683.39258 L 609.10742 661.07227 L 608.03516 660.35742 L 606.25 660.35742 z M 553.21484 696.25 L 578.03516 725 L 557.85742 736.78516 L 547.85742 736.42773 L 547.14258 741.96484 L 536.60742 748.75 L 538.21484 737.32227 L 521.25 735.89258 L 532.67773 753.03516 L 523.57227 758.57227 L 504.46484 726.78516 L 541.78516 726.78516 L 553.21484 696.25 z M 555.89258 709.82227 L 551.07227 725.35742 L 566.78516 724.64258 L 555.89258 709.82227 z "
       transform="scale(0.26458333)" />
    <path
       id="path863"
       style="fill:#000000;stroke:#000000;stroke-width:0.264583px;stroke-linecap:butt;stroke-linejoin:miter;stroke-opacity:1"
       d="m 162.2431,189.02704 -29.62403,19.466 -0.4253,0.37775 0.23617,0.33073 0.2837,0.28371 1.74821,3.02359 0.75551,0.709 0.8506,0.47232 1.03972,0.47232 1.27538,-0.047 26.41131,-17.15038 0.56689,-0.89813 0.18913,-1.18081 -0.0475,-1.18132 -0.14159,-0.75603 -2.12597,-3.63802 -0.4253,-0.23616 z m -7.2316,6.32572 3.68505,4.96094 -2.26808,1.36994 -3.63802,-5.10253 z m -12.23698,7.46517 3.77962,5.52783 -1.98438,1.32292 -4.20491,-5.38623 z" />
    <ellipse
       style="fill:none;fill-opacity:1;stroke-width:0.264583"
       id="path883"
       cx="116.91276"
       cy="193.45293"
       rx="2.952939"
       ry="3.283668" />
    <path
       id="path964"
       style="fill:#000000;stroke:#000000;stroke-width:0.264583px;stroke-linecap:butt;stroke-linejoin:miter;stroke-opacity:1"
       d="m 106.61176,157.86879 21.34221,-4.07056 1.6914,3.41236 -20.99971,4.41131 z m -5.00653,-8.30939 21.07621,-4.26901 1.92236,3.52729 -21.03694,3.8367 z m -7.555605,-8.18193 23.225615,-4.91567 2.08538,3.39168 -22.042975,4.15019 z M 129.64376,63.232316 c -0.2574,0.01033 -0.49394,0.04538 -0.73019,0.08475 -0.47248,0.07874 -0.94505,0.173358 -1.32705,0.32298 -0.38199,0.149619 -0.67324,0.354322 -1.04335,0.629936 -0.37012,0.275614 -0.81907,0.622231 -1.13016,1.059365 -0.31108,0.437137 -0.48402,0.964464 -0.59015,1.216464 -0.10611,0.252 -0.14573,0.22873 -3.2799,0.925526 -3.13417,0.696796 -9.3624,2.114201 -13.00437,2.933152 -3.64196,0.818952 -4.69717,1.039299 -6.92568,1.330669 -2.228495,0.29137 -5.630535,0.653547 -10.414345,0.877983 -4.783808,0.224435 -10.949187,0.311192 -14.390334,0.303339 -3.441147,-0.0079 -4.157818,-0.110574 -5.004345,-0.193267 -0.846526,-0.0827 -1.822688,-0.145227 -2.578655,-0.176734 -0.755965,-0.03151 -1.291858,-0.03148 -1.756482,0 -0.464624,0.03148 -0.857999,0.09441 -1.224214,0.204637 -0.366217,0.110236 -0.704757,0.267602 -1.004075,0.598413 -0.299318,0.330811 -0.559533,0.834602 -0.732771,1.259872 -0.173236,0.42527 -0.259491,0.771911 -1.212329,3.01222 -0.952836,2.240307 -2.771899,6.374506 -3.732588,8.559684 -0.960689,2.185178 -1.063422,2.421363 -1.153936,2.570903 -0.09051,0.149537 -0.169007,0.212487 -0.32246,0.255797 -0.153454,0.04331 -0.381929,0.06658 -1.736329,-0.594794 -1.354399,-0.661377 -3.834762,-2.007733 -5.106664,-2.641701 -1.271903,-0.633968 -1.334836,-0.55503 -1.397847,-0.440798 -0.06301,0.114228 -0.126201,0.263588 0.224274,2.633945 0.350478,2.370357 1.114478,6.960992 1.492417,9.299691 0.377939,2.338704 0.370213,2.425574 0.291454,2.586924 -0.07876,0.161348 -0.228753,0.397498 -1.858801,2.653578 -1.630047,2.25607 -4.740402,6.53213 -6.468856,8.88267 -1.728454,2.35052 -2.074767,2.77526 -3.200836,4.11395 -1.126072,1.33869 -3.031781,3.59115 -4.34289,5.10305 -1.311103,1.51191 -2.027388,2.28351 -2.846337,3.09852 -0.818949,0.81501 -1.740553,1.67315 -2.362647,2.25981 -0.622091,0.58666 -0.944666,0.90189 -1.224214,1.17357 -0.279545,0.27167 -0.516083,0.49984 -0.657841,0.81494 -0.141759,0.31511 -0.188778,0.71676 -0.212389,1.079 -0.02361,0.36225 -0.0238,0.68478 0.03927,0.97617 0.06307,0.29138 0.189223,0.55165 0.677477,1.31155 0.488254,0.7599 1.338924,2.01943 1.760101,2.72024 0.421174,0.70081 0.413342,0.84278 0.401523,0.99633 -0.01182,0.15354 -0.02794,0.31898 -0.142107,0.51573 -0.114176,0.19675 -0.326883,0.42521 -1.004076,0.96066 -0.67719,0.53545 -1.818727,1.37788 -2.413288,1.82676 -0.594561,0.44889 -0.641802,0.50407 -0.661458,0.56328 -0.01966,0.0592 -0.01172,0.122 0.03566,0.17311 0.04739,0.0511 0.133787,0.0906 1.755965,0.4961 1.622179,0.40552 4.78004,1.17717 6.484877,1.62212 1.704837,0.44495 1.956946,0.56323 2.22467,0.72864 0.267726,0.1654 0.551232,0.37787 2.543513,1.97249 1.992284,1.59462 5.693175,4.57084 7.646046,6.15363 1.952873,1.58279 2.15715,1.77175 2.326473,1.8898 0.169323,0.11805 0.303355,0.1655 0.468704,0.20878 0.165351,0.0433 0.362334,0.0828 0.622186,0.1142 0.25985,0.0315 0.582488,0.0548 0.842325,0.0548 0.259837,-2e-5 0.457052,-0.0235 2.776059,-1.43299 2.319006,-1.40958 6.759768,-4.20476 9.189103,-5.66942 2.429335,-1.46466 2.846787,-1.5988 3.216857,-1.75235 0.37007,-0.15355 0.692997,-0.32681 1.169437,-0.52761 0.476441,-0.2008 1.106308,-0.42892 1.704806,-0.59428 0.598501,-0.16536 1.165537,-0.26784 1.811258,-0.37414 0.645724,-0.10631 1.370057,-0.21665 1.97249,-0.25993 0.602432,-0.0433 1.082667,-0.0198 1.724443,-0.004 0.641776,0.0157 1.444924,0.0238 2.200899,0.0868 0.755976,0.063 1.465125,0.18118 1.921846,0.25993 0.456724,0.0788 0.661091,0.11809 1.708423,0.41341 1.047334,0.29532 2.937534,0.84628 4.327385,1.43299 1.389853,0.58672 2.279663,1.20901 3.059244,1.75235 0.779582,0.54335 1.448764,1.00801 2.125964,1.53169 0.67721,0.52367 1.36232,1.10641 1.9017,1.66553 0.53937,0.55912 0.93295,1.09454 1.29914,1.53944 0.36619,0.4449 0.70491,0.799 1.06712,1.25574 0.36221,0.45675 0.74818,1.01577 1.28364,1.87017 0.53547,0.8544 1.2201,2.00404 1.7477,2.86236 0.5276,0.85831 0.8977,1.4254 1.240228,1.97662 0.342527,0.55123 0.657887,1.08687 1.134297,1.90583 0.47643,0.81896 1.11414,1.92106 1.85829,3.17706 0.74416,1.256 1.59436,2.66579 2.39365,3.90209 0.79929,1.23631 1.54755,2.29952 2.10271,3.11454 0.55515,0.81502 0.91721,1.38182 1.15342,1.79524 0.2362,0.41342 0.34635,0.67326 0.37776,0.89762 0.0314,0.22437 -0.0158,0.41308 -0.36225,0.67282 -0.34643,0.25974 -0.99182,0.59063 -1.49191,0.88987 -0.50006,0.29925 -0.8545,0.56702 -1.18132,0.83871 -0.32682,0.27168 -0.62578,0.54743 -0.79117,0.84284 -0.16537,0.29542 -0.19704,0.61039 -0.22065,0.98444 -0.0236,0.37405 -0.0394,0.80714 0.22841,1.46864 0.26785,0.6615 0.81919,1.55103 1.30741,2.33061 0.48823,0.77959 0.91346,1.44875 1.93322,3.14968 1.01976,1.70092 2.63405,4.43341 3.46077,5.77587 0.40219,0.65311 0.61596,0.97362 0.74155,1.1126 -0.20104,0.5911 -0.30371,1.21168 -0.30385,1.83658 8e-5,3.12862 2.51522,5.66481 5.61774,5.66477 2.30766,-3.4e-4 4.38037,-1.42375 5.22604,-3.58893 -0.002,0.0534 -0.003,0.12208 -0.005,0.16846 -0.0236,0.55894 -0.0477,0.57471 5.12992,-2.5988 5.17761,-3.17351 15.55598,-9.53583 20.77858,-12.78682 5.2226,-3.251 5.28977,-3.39091 5.39553,-3.56929 0.10576,-0.17838 0.2503,-0.39539 0.33383,-0.65422 0.0835,-0.25883 0.10597,-0.55967 0.11989,-0.91881 0.0139,-0.35915 0.0196,-0.77631 -0.0444,-1.09089 -0.0639,-0.31458 -0.19763,-0.52618 -2.03398,-3.50469 -1.83635,-2.97852 -5.37543,-8.72418 -7.21972,-11.70317 -1.84429,-2.97898 -1.99409,-3.19149 -2.21847,-3.38842 -0.22437,-0.19692 -0.52339,-0.37802 -0.75964,-0.52762 -0.23624,-0.14961 -0.40977,-0.26769 -0.62632,-0.36225 -0.21655,-0.0946 -0.47594,-0.16539 -0.78703,-0.17725 -0.31109,-0.0119 -0.67345,0.0352 -1.02785,0.11782 -0.35438,0.0827 -0.70082,0.20119 -1.22059,0.50436 -0.51978,0.30319 -1.21273,0.79105 -1.62213,1.04697 -0.40939,0.25593 -0.5355,0.27953 -0.66146,0.27957 -0.12594,5e-5 -0.25207,-0.0232 -0.40565,-0.13333 -0.15358,-0.11014 -0.33433,-0.30693 -2.54713,-3.9765 -2.21283,-3.66957 -6.45716,-10.81184 -8.57158,-14.42237 -2.11442,-3.61052 -2.09898,-3.68938 -1.94923,-3.73672 0.14976,-0.0473 0.43336,-0.0628 1.20509,-0.047 0.77173,0.0158 2.03167,0.0627 2.6386,0.0465 0.60692,-0.0162 0.56066,-0.096 -1.0604,-2.2965 -1.40568,-1.90811 -3.86272,-5.22661 -5.58622,-7.53236 -0.0165,-0.39983 -0.0248,-0.82112 0.008,-1.35599 0.0472,-0.77568 0.1732,-1.76775 0.35037,-2.74815 0.17717,-0.9804 0.40516,-1.94895 0.68471,-2.87424 0.27954,-0.92529 0.61054,-1.80744 1.00821,-2.66186 0.39767,-0.85441 0.86245,-1.68115 1.52393,-2.69699 0.66148,-1.01584 1.51975,-2.2206 2.39779,-3.25613 0.87803,-1.03554 1.77532,-1.90164 2.7833,-2.69699 1.00797,-0.79535 2.12646,-1.51972 3.53208,-2.41743 1.40562,-0.89771 3.0985,-1.96903 4.66948,-2.93367 1.57099,-0.964626 3.01978,-1.822794 3.92534,-2.374008 0.90556,-0.551217 1.26763,-0.795086 1.56683,-1.058852 0.29919,-0.263763 0.5357,-0.547285 0.69712,-0.89762 0.16142,-0.350332 0.24817,-0.767721 0.27181,-1.311029 0.0237,-0.543309 -0.016,-1.212506 -0.14986,-2.094447 -0.13384,-0.881941 -0.3621,-1.976448 -0.75189,-3.854545 -0.38979,-1.878095 -0.9408,-4.539684 -1.61799,-7.008358 -0.67719,-2.468673 -1.48061,-4.744341 -2.40192,-6.996472 -0.92131,-2.252131 -1.96093,-4.480901 -2.70112,-6.03219 -0.74021,-1.551287 -1.1808,-2.425372 -1.66502,-3.07113 -0.48422,-0.645758 -1.01171,-1.06295 -1.68103,-1.425236 -0.66933,-0.362284 -1.48053,-0.669552 -2.12235,-0.791681 -0.32092,-0.06107 -0.5994,-0.07544 -0.8568,-0.06511 z m 0.37104,1.843299 c 2.06003,4.4e-5 3.73,1.643865 3.73,3.671609 0,2.027744 -1.66997,3.671566 -3.73,3.67161 -2.06004,-3.8e-5 -3.73001,-1.643862 -3.73001,-3.67161 0,-2.027748 1.66997,-3.671571 3.73001,-3.671609 z m -3.8778,8.067725 c 0.10618,-0.0082 0.16692,0.01815 0.26923,0.0708 0.13642,0.07019 0.34656,0.18711 0.56482,0.315743 0.21827,0.128635 0.44457,0.268647 0.65113,0.342614 0.20656,0.07397 0.39339,0.08212 0.77928,0.13281 0.38589,0.05069 0.97069,0.144219 1.44229,0.187069 0.4716,0.04285 0.83003,0.03495 1.08727,0.02325 0.25724,-0.0117 0.41347,-0.02748 0.57722,0.0155 0.16374,0.04298 0.33479,0.144303 0.68937,1.02526 0.35459,0.880957 0.89251,2.541606 1.33687,3.796668 0.44435,1.255061 0.79533,2.104567 1.06815,2.876312 0.27282,0.771742 0.46789,1.465246 0.65887,2.159039 0.19098,0.693793 0.3777,1.387618 0.57258,2.147673 0.19488,0.760056 0.39766,1.586627 0.53795,2.338875 0.1403,0.752247 0.2182,1.430165 0.28836,2.022618 0.0702,0.592449 0.13241,1.099579 0.15967,1.438671 0.0273,0.33909 0.0199,0.510106 -0.0269,0.654222 -0.0468,0.144116 -0.13299,0.261208 -0.97875,0.775663 -0.84575,0.514459 -2.45118,1.426369 -3.51916,2.050005 -1.06797,0.623636 -1.59809,0.959186 -2.10478,1.267106 -0.5067,0.307919 -0.99027,0.588589 -1.37615,0.818554 -0.38588,0.229968 -0.67398,0.408776 -1.20406,0.681612 -0.53007,0.272838 -1.30182,0.639461 -2.19056,1.282608 -0.88873,0.643148 -1.89457,1.562908 -2.4753,2.077388 -0.58074,0.51448 -0.73657,0.62389 -1.06402,1.00201 -0.32745,0.37811 -0.82651,1.02495 -1.15394,1.4888 -0.3274,0.46385 -0.48322,0.74419 -0.70538,1.10277 -0.22217,0.35858 -0.51061,0.79517 -1.00562,1.55133 -0.49501,0.75616 -1.19646,1.83183 -1.71876,2.75952 -0.5223,0.92769 -0.86542,1.70752 -1.16944,2.41691 -0.30403,0.70939 -0.5688,1.34852 -0.77928,1.84743 -0.21048,0.4989 -0.36641,0.85731 -0.50281,1.4888 -0.13641,0.63148 -0.25331,1.53604 -0.37414,2.4598 -0.12083,0.92375 -0.24574,1.86691 -0.33538,2.71663 -0.0896,0.84971 -0.14421,1.60588 -0.14418,2.19056 4e-5,0.58469 0.0546,0.99777 0.0662,1.3038 0.0116,0.30603 -0.0195,0.50508 -0.0506,0.70383 l 0.22582,-0.0103 c -1.74116,2.1199 -3.78958,4.6258 -5.07824,6.20221 -1.72053,2.10474 -1.80994,2.20491 -1.8712,2.2996 -0.0613,0.0947 -0.0945,0.18427 1.28106,0.24546 1.37551,0.0612 4.15955,0.0943 5.57382,0.10542 1.41426,0.0111 1.45844,-6e-5 4.26485,4.71083 2.80641,4.7109 8.37462,14.14309 11.24221,18.98178 2.8676,4.83869 3.03476,5.08399 3.17397,5.28444 0.13921,0.20046 0.25043,0.35637 0.36742,0.46767 0.11699,0.11131 0.23947,0.17798 0.42323,0.26148 0.18375,0.0835 0.42898,0.1836 0.67954,0.28939 0.25057,0.1058 0.50648,0.21704 0.70694,0.28939 0.20044,0.0724 0.3454,0.10609 0.55138,0.11162 0.20599,0.006 0.47321,-0.017 1.13016,-0.34003 0.65696,-0.32296 1.70366,-0.94618 2.26602,-1.2914 0.56235,-0.34521 0.64006,-0.41205 0.73484,-0.44545 0.0948,-0.0334 0.20637,-0.0334 0.2899,-0.0222 0.0835,0.0112 0.13946,0.0334 1.24747,1.80971 1.10801,1.77636 3.26816,5.3065 4.38733,7.15512 1.11917,1.84862 1.19708,2.0154 1.23041,2.13785 0.0333,0.12244 0.022,0.20047 -0.0114,0.29507 -0.0334,0.0946 -0.0888,0.20624 -4.09226,2.7063 -4.00349,2.50006 -11.95499,7.3887 -15.99747,9.8888 -4.04247,2.50009 -4.1759,2.61143 -4.39302,2.74505 -0.21426,0.13187 -0.50923,0.2854 -0.74879,0.41031 -1.0469,-1.01769 -2.44434,-1.58637 -3.89847,-1.58646 -0.009,-2e-5 -0.0175,-2e-5 -0.0263,0 -0.11465,6e-4 -0.22925,0.005 -0.34365,0.0124 -0.0721,-0.26636 -0.46438,-0.77607 -1.31103,-2.03709 -0.93316,-1.38985 -2.41355,-3.689 -3.13418,-4.86637 -0.72063,-1.17736 -0.68127,-1.23236 -0.65371,-1.31102 0.0276,-0.0787 0.0433,-0.18098 0.1261,-0.29921 0.0827,-0.11824 0.23201,-0.25224 0.40927,-0.34675 0.17725,-0.0945 0.38185,-0.14989 0.75189,-0.34675 0.37006,-0.19686 0.90589,-0.53525 1.28778,-0.79117 0.38191,-0.25592 0.61007,-0.42907 0.84233,-0.66921 0.23227,-0.24013 0.46871,-0.54741 0.58291,-0.85834 0.1142,-0.31093 0.10625,-0.62576 0.10232,-1.00769 -0.004,-0.38192 -0.004,-0.83068 -0.11007,-1.19683 -0.1062,-0.36616 -0.31913,-0.64989 -2.33113,-3.93361 -2.01199,-3.28373 -5.82291,-9.56731 -8.00416,-13.22503 -2.18125,-3.65772 -2.73244,-4.68925 -3.16156,-5.37435 -0.42912,-0.68511 -0.73615,-1.0235 -1.11415,-1.56683 -0.37802,-0.54333 -0.82714,-1.2918 -1.23662,-1.90996 -0.409437,-0.61816 -0.779427,-1.10641 -1.133775,-1.55133 -0.35434,-0.44492 -0.69271,-0.84609 -0.92501,-1.11776 -0.23229,-0.27168 -0.35829,-0.41363 -0.99218,-0.97668 -0.63389,-0.56306 -1.77579,-1.54735 -3.26802,-2.6262 -1.49222,-1.07884 -3.33478,-2.25218 -4.701005,-3.01997 -1.366227,-0.7678 -2.255999,-1.12981 -3.606499,-1.54719 -1.350499,-0.41738 -3.161657,-0.88978 -4.642093,-1.15755 -1.480436,-0.26776 -2.630337,-0.33115 -3.819406,-0.37052 -1.189067,-0.0394 -2.417249,-0.055 -3.551203,-0.0196 -1.133954,0.0354 -2.173258,0.12201 -2.850473,0.185 -0.677214,0.063 -0.992177,0.10231 -1.882055,0.40153 -0.889878,0.29923 -2.354572,0.85863 -3.630268,1.40198 -1.275697,0.54335 -2.362449,1.07068 -3.464907,1.66915 -1.102455,0.59847 -2.220592,1.26771 -3.224609,1.8898 -1.004015,0.6221 -1.893642,1.19703 -2.838585,1.77974 -0.944946,0.58272 -1.945079,1.17325 -2.606559,1.5906 -0.661482,0.41736 -0.984702,0.66177 -1.205095,0.79168 -0.220395,0.12993 -0.338325,0.14542 -0.49971,0.12971 -0.161386,-0.0157 -0.366099,-0.0631 -1.704806,-1.12603 -1.338707,-1.06299 -3.811093,-3.14177 -5.102532,-4.24418 -1.291436,-1.10241 -1.402006,-1.22811 -1.476912,-1.40922 -0.07491,-0.1811 -0.114279,-0.41739 -0.157612,-2.27583 -0.04333,-1.85844 -0.09018,-5.33922 -0.125574,-7.1267 -0.0354,-1.78748 -0.05936,-1.88194 -0.07907,-1.97249 -0.01969,-0.0905 -0.03518,-0.17709 -0.105936,-0.2284 -0.07075,-0.0513 -0.196908,-0.0671 -0.291455,-0.0672 -0.09455,-3e-5 -0.157546,0.0157 -0.933278,0.6811 -0.775731,0.66542 -2.263902,1.98039 -3.059244,2.69699 -0.79534,0.7166 -0.897956,0.83505 -1.015958,0.90589 -0.118004,0.0708 -0.251875,0.0946 -0.389641,0.0946 -0.137764,5e-5 -0.27921,-0.0237 -0.385506,-0.0631 -0.106296,-0.0393 -0.177472,-0.0945 -0.275953,-0.21652 -0.09848,-0.12202 -0.224432,-0.31105 -0.291454,-0.44493 -0.06702,-0.13389 -0.07465,-0.21228 -0.0078,-0.3266 0.06692,-0.11432 0.20879,-0.2643 2.256194,-2.59519 2.047404,-2.33089 6.000314,-6.84296 8.618596,-9.9534 2.618277,-3.11043 3.901355,-4.81902 5.716444,-7.50031 1.815092,-2.6813 4.161671,-6.33498 5.386237,-8.18555 1.224563,-1.850558 1.327219,-1.897608 1.465027,-1.960598 0.137806,-0.063 0.310867,-0.14177 0.606163,-0.27957 0.295296,-0.13781 0.712724,-0.334756 2.110465,-1.035597 1.397743,-0.700845 3.77603,-1.905733 5.028118,-2.523879 1.252087,-0.618144 1.377709,-0.649677 1.480013,-0.692981 0.102304,-0.04331 0.181411,-0.09815 0.212907,-0.176734 0.03149,-0.07858 0.01572,-0.181337 -0.03927,-0.264065 -0.05499,-0.08273 -0.149681,-0.14574 -1.004073,-0.539503 -0.854395,-0.393761 -2.468473,-1.117749 -3.275769,-1.519286 -0.807297,-0.401539 -0.807609,-0.480631 -0.795817,-0.575159 0.01179,-0.09453 0.03544,-0.20489 0.08268,-0.334864 0.04724,-0.129974 0.118173,-0.27921 1.086755,-2.350244 0.968581,-2.071034 2.834748,-6.063342 4.701005,-10.055717 l 0.01085,-0.01654 c 0.01079,-0.01641 0.03239,-0.04966 0.0584,-0.07855 0.02601,-0.02889 0.05624,-0.05323 0.105936,-0.07183 0.0497,-0.01861 0.118841,-0.03118 0.19017,-0.04082 0.07133,-0.0096 0.145187,-0.01656 0.261998,-0.01654 0.116814,1.6e-5 0.276572,0.0071 0.43615,0.01395 0.320696,0.01662 0.641112,0.03304 1.085204,0.05788 0.444093,0.02484 1.011878,0.05813 2.798797,0.158647 1.786916,0.10051 4.792906,0.268182 6.724653,0.313158 1.931746,0.04498 2.788888,-0.03272 3.537251,-0.09508 0.748363,-0.06236 1.387711,-0.109294 2.541447,-0.156065 1.153737,-0.04677 2.821887,-0.0936 4.318597,-0.171563 1.49672,-0.07796 2.82199,-0.187352 4.11603,-0.319879 1.29403,-0.132527 2.557,-0.288078 3.648348,-0.428397 1.091357,-0.14032 2.010787,-0.265007 3.008607,-0.374137 0.99783,-0.109133 2.07388,-0.202748 3.52381,-0.444418 1.44994,-0.241671 3.2742,-0.631497 4.56045,-0.904338 1.28625,-0.272838 2.03448,-0.428892 2.95434,-0.615982 0.91987,-0.187092 2.01104,-0.405122 2.96209,-0.592211 0.95104,-0.187092 1.76179,-0.343017 2.5647,-0.545703 0.80291,-0.20269 1.59798,-0.452316 2.48667,-0.701768 0.88869,-0.249452 1.87094,-0.498785 2.47117,-0.66249 0.60023,-0.163706 0.81857,-0.241837 1.09141,-0.335381 0.27284,-0.09355 0.60034,-0.202671 0.7953,-0.245464 0.0487,-0.0107 0.0891,-0.01691 0.12454,-0.01964 z m -8.54884,116.07611 c 1.99644,-2e-4 3.61494,1.57595 3.61477,3.5202 -1.3e-4,1.94404 -1.61854,3.51988 -3.61477,3.51968 -1.99603,-8e-5 -3.61411,-1.57584 -3.61424,-3.51968 -1.7e-4,-1.94404 1.61801,-3.52012 3.61424,-3.5202 z"
       sodipodi:nodetypes="ccccccccccccccccssssssssscssssssssssssssssssssssssssssssssssssssssscscsssssscscssssssssssssssssssssssssscccccssssscsssssscsssssscsssccssssssssssscsssssssscccscsccsssssssssssssccssssssssssssssssscssccsssssssssscccsssssssssscsccssscsssssccsssscsssssssssssssssssscsssssscsscccsscssssssssssssssssccsscscsssssssssssssssssscccscsc" />
    <path
       style="fill:none;fill-opacity:1;stroke:#7c8160;stroke-width:0.626971;stroke-miterlimit:4;stroke-dasharray:none;stroke-opacity:1"
       id="path979"
       sodipodi:type="arc"
       sodipodi:cx="90.277031"
       sodipodi:cy="110.76452"
       sodipodi:rx="14.14317"
       sodipodi:ry="13.927021"
       sodipodi:start="0"
       sodipodi:end="6.2811141"
       sodipodi:arc-type="arc"
       d="M 104.4202,110.76452 A 14.14317,13.927021 0 0 1 90.284354,124.69154 14.14317,13.927021 0 0 1 76.133868,110.77894 14.14317,13.927021 0 0 1 90.255061,96.837515 14.14317,13.927021 0 0 1 104.42017,110.73567"
       sodipodi:open="true" />
    <path
       style="fill:none;fill-opacity:1;stroke:#424a26;stroke-width:1.049;stroke-miterlimit:4;stroke-dasharray:none;stroke-opacity:1"
       id="path979-3"
       sodipodi:type="arc"
       sodipodi:cx="90.45443"
       sodipodi:cy="110.95964"
       sodipodi:rx="11.410156"
       sodipodi:ry="11.310937"
       sodipodi:start="0"
       sodipodi:end="6.2811141"
       sodipodi:arc-type="arc"
       d="M 101.86459,110.95964 A 11.410156,11.310937 0 0 1 90.460338,122.27058 11.410156,11.310937 0 0 1 79.044279,110.97135 11.410156,11.310937 0 0 1 90.436705,99.648717 11.410156,11.310937 0 0 1 101.86456,110.93621"
       sodipodi:open="true" />
    <path
       style="fill:none;fill-opacity:1;stroke:#7c8160;stroke-width:0.604;stroke-miterlimit:4;stroke-dasharray:none;stroke-opacity:1"
       id="path998"
       sodipodi:type="arc"
       sodipodi:cx="-142.80701"
       sodipodi:cy="10.287574"
       sodipodi:rx="9.37782"
       sodipodi:ry="9.401206"
       sodipodi:start="0.0081681734"
       sodipodi:end="3.4062269"
       sodipodi:open="true"
       sodipodi:arc-type="arc"
       d="m -133.4295,10.364364 a 9.37782,9.401206 0 0 1 -5.46866,8.468812 9.37782,9.401206 0 0 1 -9.96987,-1.371811 9.37782,9.401206 0 0 1 -2.99034,-9.6327355"
       transform="rotate(-125.15417)" />
    <ellipse
       style="fill:#424a26;fill-opacity:1;stroke:#7c8160;stroke-width:0.23173;stroke-miterlimit:4;stroke-dasharray:none;stroke-opacity:1"
       id="path1004"
       cx="85.780151"
       cy="102.66491"
       rx="0.8886711"
       ry="0.84189898" />
    <ellipse
       style="fill:#424a26;fill-opacity:1;stroke:#7c8160;stroke-width:0.23173;stroke-miterlimit:4;stroke-dasharray:none;stroke-opacity:1"
       id="path1004-2"
       cx="94.52655"
       cy="119.22225"
       rx="0.8886711"
       ry="0.84189898" />
    <path
       style="fill:none;fill-opacity:1;stroke:#7c8160;stroke-width:0.52224748;stroke-miterlimit:4;stroke-dasharray:none;stroke-opacity:1"
       id="path998-0"
       sodipodi:type="arc"
       sodipodi:cx="-140.00114"
       sodipodi:cy="-35.33073"
       sodipodi:rx="7.6002579"
       sodipodi:ry="7.3602772"
       sodipodi:start="0.0081681734"
       sodipodi:end="3.4062269"
       sodipodi:open="true"
       sodipodi:arc-type="arc"
       d="m -132.40114,-35.270611 a 7.6002579,7.3602772 0 0 1 -4.43208,6.630299 7.6002579,7.3602772 0 0 1 -8.08008,-1.074002 7.6002579,7.3602772 0 0 1 -2.42352,-7.541543"
       transform="matrix(-0.41531639,-0.90967703,-0.89073968,0.45451384,0,0)" />
    <ellipse
       style="fill:#424a26;fill-opacity:1;stroke:#7c8160;stroke-width:0.23173;stroke-miterlimit:4;stroke-dasharray:none;stroke-opacity:1"
       id="path1004-8"
       cx="86.668831"
       cy="104.30193"
       rx="0.8886711"
       ry="0.84189898" />
    <ellipse
       style="fill:#424a26;fill-opacity:1;stroke:#7c8160;stroke-width:0.23173;stroke-miterlimit:4;stroke-dasharray:none;stroke-opacity:1"
       id="path1004-8-3"
       cx="93.684647"
       cy="117.67877"
       rx="0.8886711"
       ry="0.84189898" />
    <ellipse
       style="fill:#424a26;fill-opacity:1;stroke:#7c8160;stroke-width:0.332;stroke-miterlimit:4;stroke-dasharray:none;stroke-opacity:1"
       id="path1004-8-3-3"
       cx="78.109512"
       cy="118.24004"
       rx="0.8886711"
       ry="0.84189898" />
    <ellipse
       style="fill:#424a26;fill-opacity:1;stroke:#7c8160;stroke-width:0.23173;stroke-miterlimit:4;stroke-dasharray:none;stroke-opacity:1"
       id="path1004-8-3-3-6"
       cx="102.66491"
       cy="103.88098"
       rx="0.8886711"
       ry="0.84189898" />
    <ellipse
       style="fill:#424a26;fill-opacity:1;stroke:#7c8160;stroke-width:0.332;stroke-miterlimit:4;stroke-dasharray:none;stroke-opacity:1"
       id="path1004-8-3-3-6-5"
       cx="99.250542"
       cy="126.51872"
       rx="0.8886711"
       ry="0.84189898" />
    <ellipse
       style="fill:#424a26;fill-opacity:1;stroke:#7c8160;stroke-width:0.23173;stroke-miterlimit:4;stroke-dasharray:none;stroke-opacity:1"
       id="path1004-8-3-3-6-5-0"
       cx="81.570663"
       cy="95.555534"
       rx="0.8886711"
       ry="0.84189898" />
    <path
       id="path1126"
       style="fill:#424a26;fill-opacity:1;stroke:none;stroke-width:1.52693;stroke-miterlimit:4;stroke-dasharray:none;stroke-opacity:1"
       d="M 342.0625 397.92383 A 20.682873 20.682873 0 0 0 321.38086 418.60742 A 20.682873 20.682873 0 0 0 342.0625 439.28906 A 20.682873 20.682873 0 0 0 362.74609 418.60742 A 20.682873 20.682873 0 0 0 342.0625 397.92383 z M 342.3125 404.28906 A 6.7175142 6.1871841 0 0 1 342.41602 404.28906 A 6.7175142 6.1871841 0 0 1 349.13477 410.47461 A 6.7175142 6.1871841 0 0 1 342.41602 416.66211 A 6.7175142 6.1871841 0 0 1 335.69922 410.47461 A 6.7175142 6.1871841 0 0 1 342.3125 404.28906 z "
       transform="scale(0.26458333)" />
    <path
       style="fill:none;stroke:#7c8160;stroke-width:0.665;stroke-linecap:butt;stroke-linejoin:round;stroke-opacity:1;stroke-miterlimit:4;stroke-dasharray:none"
       d="m 77.454709,118.52067 -2.198293,1.1693 8.512534,15.34128 14.63969,-8.04482"
       id="path1136" />
    <path
       style="fill:none;stroke:#7c8160;stroke-width:0.465;stroke-linecap:round;stroke-linejoin:round;stroke-opacity:1;stroke-miterlimit:4;stroke-dasharray:none"
       d="m 74.414517,121.98181 -1.637027,-2.94665 2.806332,-1.44994"
       id="path1138" />
    <path
       style="fill:none;stroke:#7c8160;stroke-width:0.465;stroke-linecap:round;stroke-linejoin:round;stroke-miterlimit:4;stroke-dasharray:none;stroke-opacity:1"
       d="m 106.45385,100.09401 1.70171,2.90977 -2.77361,1.51158"
       id="path1138-3" />
    <path
       style="fill:none;stroke:#7c8160;stroke-width:0.465;stroke-linecap:round;stroke-linejoin:round;stroke-miterlimit:4;stroke-dasharray:none;stroke-opacity:1"
       d="m 87.388861,131.06731 -2.944472,1.64094 -1.453671,-2.8044"
       id="path1138-3-4" />
    <path
       style="fill:none;stroke:#7c8160;stroke-width:0.665001;stroke-linecap:butt;stroke-linejoin:round;stroke-miterlimit:4;stroke-dasharray:none;stroke-opacity:1"
       d="m 103.39723,103.59643 2.19829,-1.1693 -8.512523,-15.341284 -14.639688,8.044822"
       id="path1136-9" />
    <path
       style="fill:none;stroke:#7c8160;stroke-width:0.465;stroke-linecap:round;stroke-linejoin:round;stroke-miterlimit:4;stroke-dasharray:none;stroke-opacity:1"
       d="m 93.603826,90.809892 2.944472,-1.64094 1.453671,2.8044"
       id="path1138-3-4-5" />
    <path
       style="fill:none;stroke:#7c8160;stroke-width:0.665;stroke-linecap:round;stroke-linejoin:round;stroke-miterlimit:4;stroke-dasharray:none;stroke-opacity:1"
       d="m 32.080729,140.62604 -1.719792,1.45521 11.542448,3.175"
       id="path1209" />
    <path
       style="fill:none;stroke:#7c8160;stroke-width:0.565;stroke-linecap:round;stroke-linejoin:round;stroke-miterlimit:4;stroke-dasharray:none;stroke-opacity:1"
       d="m 37.438541,142.08125 -4.398697,3.60495 14.419791,4.10104"
       id="path1211" />
    <path
       style="fill:none;stroke:#7c8160;stroke-width:0.665;stroke-linecap:round;stroke-linejoin:round;stroke-opacity:1;stroke-miterlimit:4;stroke-dasharray:none"
       d="m 43.32552,131.49792 2.447396,-2.05053 0.529167,11.31094"
       id="path1231" />
    <path
       style="fill:none;stroke:#7c8160;stroke-width:0.665;stroke-linecap:round;stroke-linejoin:round;stroke-opacity:1;stroke-miterlimit:4;stroke-dasharray:none"
       d="m 43.391666,137.6164 5.589323,-4.49791 -0.330729,9.8888"
       id="path1233" />
    <path
       style="fill:none;stroke:#7c8160;stroke-width:0.665;stroke-linecap:butt;stroke-linejoin:miter;stroke-miterlimit:4;stroke-dasharray:none;stroke-opacity:1"
       d="m 65.326045,125.06877 c 2.011148,-4.87976 4.02235,-9.75965 6.017998,-13.45473 1.995648,-3.69508 3.975626,-6.20513 5.721824,-8.13842 1.746198,-1.93329 3.258465,-3.28965 4.482394,-4.193937 1.22393,-0.904288 2.159355,-1.356411 4.194006,-2.050206 2.034651,-0.693795 5.168323,-1.62922 8.146225,-2.104712 2.977902,-0.475492 5.79977,-0.491081 9.198608,-0.07789 3.39883,0.413196 7.37439,1.25508 11.34972,2.096914"
       id="path1239"
       inkscape:path-effect="#path-effect1241"
       inkscape:original-d="m 65.326045,125.06877 c 2.011465,-4.87963 4.022669,-9.75952 6.033608,-14.63968 1.980327,-2.5099 3.960307,-5.01995 5.940065,-7.53032 1.512594,-1.35616 3.024865,-2.71252 4.5369,-4.069181 0.935726,-0.451877 1.871152,-0.903999 2.80633,-1.356394 3.134064,-0.935197 6.267736,-1.870623 9.401207,-2.80633 2.822241,-0.01532 5.644108,-0.03092 8.465755,-0.04677 3.97598,0.842182 7.95154,1.684062 11.92691,2.525699" />
    <path
       style="fill:none;stroke:#7c8160;stroke-width:0.665;stroke-linecap:round;stroke-linejoin:miter;stroke-miterlimit:4;stroke-dasharray:none;stroke-opacity:1"
       d="m 114.43682,97.145794 c -2.01115,4.879756 -4.02235,9.759646 -6.018,13.454726 -1.99565,3.69509 -3.97563,6.20514 -5.72182,8.13843 -1.7462,1.93329 -3.258468,3.28965 -4.482398,4.19394 -1.223931,0.90428 -2.159356,1.3564 -4.194006,2.0502 -2.03465,0.69379 -5.168324,1.62922 -8.146225,2.10471 -2.977901,0.4755 -5.799767,0.4911 -9.198601,0.0779 -3.398834,-0.41319 -7.374393,-1.25507 -11.349722,-2.09691"
       id="path1239-1"
       inkscape:path-effect="#path-effect1260"
       inkscape:original-d="m 114.43682,97.145794 c -2.01147,4.879626 -4.02267,9.759516 -6.03361,14.639676 -1.98033,2.50991 -3.96031,5.01996 -5.94006,7.53033 -1.5126,1.35616 -3.024869,2.71252 -4.536904,4.06918 -0.935726,0.45188 -1.871152,0.904 -2.80633,1.35639 -3.134064,0.9352 -6.267736,1.87063 -9.401207,2.80633 -2.822241,0.0153 -5.644107,0.0309 -8.465756,0.0468 -3.975975,-0.84218 -7.951535,-1.68406 -11.926905,-2.5257" />
    <path
       style="fill:none;stroke:#7c8160;stroke-width:0.665;stroke-linecap:round;stroke-linejoin:round;stroke-opacity:1;stroke-miterlimit:4;stroke-dasharray:none"
       d="m 121.60911,116.35052 c 1.32292,2.11667 5.85391,8.23516 5.85391,8.23516 l -6.48229,0.23151"
       id="path1262" />
    <path
       style="fill:none;stroke:#7c8160;stroke-width:0.665;stroke-linecap:round;stroke-linejoin:round;stroke-opacity:1;stroke-miterlimit:4;stroke-dasharray:none"
       d="m 120.65,119.85625 6.64765,9.1612 -3.14192,0.16536"
       id="path1264" />
    <path
       style="fill:none;stroke:#7c8160;stroke-width:0.665;stroke-linecap:round;stroke-linejoin:round;stroke-opacity:1;stroke-miterlimit:4;stroke-dasharray:none"
       d="m 115.82135,112.3487 -8.86354,12.13776 6.35,-0.0331"
       id="path1266" />
    <path
       style="fill:none;stroke:#7c8160;stroke-width:0.665;stroke-linecap:round;stroke-linejoin:round;stroke-opacity:1;stroke-miterlimit:4;stroke-dasharray:none"
       d="m 114.06849,119.4263 -7.14375,9.45885 3.34036,0.0992"
       id="path1268" />
    <path
       style="fill:none;stroke:#7c8160;stroke-width:0.665;stroke-linecap:round;stroke-linejoin:round;stroke-opacity:1;stroke-miterlimit:4;stroke-dasharray:none"
       d="m 46.959255,106.40668 -1.683798,-12.72203 5.986838,2.946646"
       id="path1270" />
    <path
       style="fill:none;stroke:#7c8160;stroke-width:0.665;stroke-linecap:round;stroke-linejoin:round;stroke-opacity:1;stroke-miterlimit:4;stroke-dasharray:none"
       d="M 49.625268,102.87538 47.426977,89.381609 50.39701,90.738004"
       id="path1272" />
    <path
       style="fill:none;stroke:#7c8160;stroke-width:0.665;stroke-linecap:round;stroke-linejoin:round;stroke-opacity:1;stroke-miterlimit:4;stroke-dasharray:none"
       d="m 53.109796,109.54041 11.716427,-6.01022 -5.659432,-2.89987"
       id="path1274" />
    <path
       style="fill:none;stroke:#7c8160;stroke-width:0.665;stroke-linecap:round;stroke-linejoin:round;stroke-opacity:1;stroke-miterlimit:4;stroke-dasharray:none"
       d="M 56.547548,104.55918 66.907584,99.367468 64.077868,97.730441"
       id="path1276" />
  </g>
</svg>
